<svg width="10" height="18" viewBox="0 0 10 18" fill="none" xmlns="http://www.w3.org/2000/svg">
<path d="M9.5 2.84211H6.5C5.94772 2.84211 5.5 3.26626 5.5 3.78948V6.63159H9.5C9.61374 6.62919 9.7216 6.67932 9.78923 6.766C9.85685 6.85267 9.87578 6.96507 9.84 7.06738L9.1 9.15159C9.03181 9.34288 8.84312 9.47219 8.63 9.47369H5.5V16.579C5.5 16.8406 5.27614 17.0526 5 17.0526H2.5C2.22386 17.0526 2 16.8406 2 16.579V9.47369H0.5C0.223858 9.47369 0 9.26162 0 9.00001V7.10527C0 6.84366 0.223858 6.63159 0.5 6.63159H2V3.78948C2 1.69661 3.79086 0 6 0H9.5C9.77614 0 10 0.212076 10 0.473685V2.36842C10 2.63003 9.77614 2.84211 9.5 2.84211Z" fill="#707070"/>
</svg>
