<svg width="18" height="18" viewBox="0 0 18 18" fill="none" xmlns="http://www.w3.org/2000/svg">
<path fill-rule="evenodd" clip-rule="evenodd" d="M13 0.947266H5C2.23858 0.947266 0 3.06802 0 5.68411V13.2631C0 15.8792 2.23858 17.9999 5 17.9999H13C15.7614 17.9999 18 15.8792 18 13.2631V5.68411C18 3.06802 15.7614 0.947266 13 0.947266ZM16.25 13.2631C16.2445 14.9614 14.7926 16.3369 13 16.3421H5C3.20735 16.3369 1.75549 14.9614 1.75 13.2631V5.68413C1.75549 3.98583 3.20735 2.61037 5 2.60517H13C14.7926 2.61037 16.2445 3.98583 16.25 5.68413V13.2631ZM13.75 5.92094C14.3023 5.92094 14.75 5.49679 14.75 4.97358C14.75 4.45038 14.3023 4.02623 13.75 4.02623C13.1977 4.02623 12.75 4.45038 12.75 4.97358C12.75 5.49679 13.1977 5.92094 13.75 5.92094ZM8.99999 5.21051C6.51472 5.21051 4.5 7.11918 4.5 9.47365C4.5 11.8281 6.51472 13.7368 8.99999 13.7368C11.4853 13.7368 13.5 11.8281 13.5 9.47365C13.5027 8.34223 13.0294 7.25641 12.1849 6.45637C11.3404 5.65633 10.1943 5.20799 8.99999 5.21051ZM6.25 9.47361C6.25 10.9125 7.48122 12.0789 9 12.0789C10.5188 12.0789 11.75 10.9125 11.75 9.47361C11.75 8.03477 10.5188 6.86835 9 6.86835C7.48122 6.86835 6.25 8.03477 6.25 9.47361Z" fill="#707070"/>
</svg>
