<svg width="20" height="18" viewBox="0 0 20 18" fill="none" xmlns="http://www.w3.org/2000/svg">
<path d="M19.9708 3.28138C19.4547 3.9335 18.8309 4.50235 18.1235 4.96596C18.1235 5.13632 18.1235 5.30667 18.1235 5.48648C18.1292 8.58004 16.8249 11.5464 14.5029 13.7205C12.181 15.8945 9.03567 17.0945 5.77211 17.0514C3.88538 17.0574 2.02281 16.6493 0.330301 15.859C0.239042 15.8212 0.18018 15.7357 0.180527 15.6413V15.5372C0.180527 15.4013 0.296758 15.2911 0.440136 15.2911C2.29475 15.2332 4.0832 14.624 5.55244 13.5498C3.87376 13.5177 2.36338 12.5756 1.66829 11.127C1.63318 11.0479 1.64411 10.9571 1.69713 10.8875C1.75016 10.818 1.83761 10.7796 1.9279 10.7863C2.43809 10.8349 2.95337 10.7899 3.44561 10.6538C1.59249 10.2894 0.200074 8.8319 0.000797149 7.04803C-0.00628542 6.96246 0.0341943 6.87957 0.107613 6.82931C0.181031 6.77906 0.276775 6.76869 0.360256 6.80197C0.857554 7.00986 1.39439 7.11935 1.93788 7.12375C0.314106 6.11407 -0.387258 4.19364 0.230452 2.44855C0.294214 2.27898 0.447402 2.15371 0.633723 2.11878C0.820043 2.08385 1.01201 2.14441 1.13908 2.2782C3.33027 4.48754 6.34099 5.80407 9.53645 5.95022C9.4546 5.6408 9.41434 5.32281 9.41663 5.00382C9.44652 3.33119 10.5389 1.84117 12.1825 1.23134C13.826 0.621516 15.6953 1.01257 16.9153 2.22142C17.747 2.07133 18.551 1.80669 19.3018 1.43591C19.3568 1.40338 19.4265 1.40338 19.4815 1.43591C19.5158 1.48803 19.5158 1.55413 19.4815 1.60626C19.1178 2.39518 18.5035 3.05687 17.7241 3.49905C18.4066 3.42407 19.0771 3.27155 19.7211 3.04478C19.7754 3.00981 19.8466 3.00981 19.9009 3.04478C19.9463 3.06447 19.9802 3.10212 19.9937 3.14771C20.0072 3.1933 19.9988 3.2422 19.9708 3.28138Z" fill="#707070"/>
</svg>
